<svg xmlns="http://www.w3.org/2000/svg" width="1250" height="430" viewBox="0 0 1250 430"><rect width="100%" height="100%" fill="white"/><style>text{font-family:Arial,sans-serif;fill:#111827}.title{font-size:18px;font-weight:bold}.small{font-size:11px}.axis{stroke:#374151}.grid{stroke:#e5e7eb}</style><text class="title" x="28" y="26">On-policy variants: validation metrics, seed 3</text><text x="22" y="61" class="small">Validation reward</text><line class="grid" x1="65" y1="365" x2="397" y2="365"/><text class="small" x="20" y="369">-0.0325</text><line class="grid" x1="65" y1="220.0" x2="397" y2="220.0"/><text class="small" x="20" y="224.0">0.203</text><line class="grid" x1="65" y1="75" x2="397" y2="75"/><text class="small" x="20" y="79">0.439</text><line class="axis" x1="65" y1="75" x2="65" y2="365"/><line class="axis" x1="65" y1="365" x2="397" y2="365"/><polyline fill="none" stroke="#2563eb" stroke-width="2" points="65.0,343.8 82.5,344.4 99.9,344.4 117.4,343.8 134.9,343.2 152.4,340.2 169.8,340.8 187.3,337.2 204.8,330.6 222.3,328.2 239.7,325.8 257.2,318.6 274.7,326.4 292.2,307.1 309.6,283.7 327.1,239.2 344.6,200.2 362.1,179.1 379.5,160.5 397.0,149.7"/><circle cx="65.0" cy="343.8" r="3" fill="#2563eb"/><circle cx="82.5" cy="344.4" r="3" fill="#2563eb"/><circle cx="99.9" cy="344.4" r="3" fill="#2563eb"/><circle cx="117.4" cy="343.8" r="3" fill="#2563eb"/><circle cx="134.9" cy="343.2" r="3" fill="#2563eb"/><circle cx="152.4" cy="340.2" r="3" fill="#2563eb"/><circle cx="169.8" cy="340.8" r="3" fill="#2563eb"/><circle cx="187.3" cy="337.2" r="3" fill="#2563eb"/><circle cx="204.8" cy="330.6" r="3" fill="#2563eb"/><circle cx="222.3" cy="328.2" r="3" fill="#2563eb"/><circle cx="239.7" cy="325.8" r="3" fill="#2563eb"/><circle cx="257.2" cy="318.6" r="3" fill="#2563eb"/><circle cx="274.7" cy="326.4" r="3" fill="#2563eb"/><circle cx="292.2" cy="307.1" r="3" fill="#2563eb"/><circle cx="309.6" cy="283.7" r="3" fill="#2563eb"/><circle cx="327.1" cy="239.2" r="3" fill="#2563eb"/><circle cx="344.6" cy="200.2" r="3" fill="#2563eb"/><circle cx="362.1" cy="179.1" r="3" fill="#2563eb"/><circle cx="379.5" cy="160.5" r="3" fill="#2563eb"/><circle cx="397.0" cy="149.7" r="3" fill="#2563eb"/><line x1="69" y1="90" x2="83" y2="90" stroke="#2563eb" stroke-width="3"/><text class="small" x="88" y="94">Standard GRPO</text><polyline fill="none" stroke="#ea580c" stroke-width="2" points="65.0,344.4 82.5,345.0 99.9,345.0 117.4,342.0 134.9,332.4 152.4,312.5 169.8,272.3 187.3,216.4 204.8,177.9 222.3,144.9 239.7,127.5 257.2,126.9 274.7,117.2 292.2,117.2 309.6,117.8 327.1,110.6 344.6,113.0 362.1,110.0 379.5,102.2 397.0,103.4"/><circle cx="65.0" cy="344.4" r="3" fill="#ea580c"/><circle cx="82.5" cy="345.0" r="3" fill="#ea580c"/><circle cx="99.9" cy="345.0" r="3" fill="#ea580c"/><circle cx="117.4" cy="342.0" r="3" fill="#ea580c"/><circle cx="134.9" cy="332.4" r="3" fill="#ea580c"/><circle cx="152.4" cy="312.5" r="3" fill="#ea580c"/><circle cx="169.8" cy="272.3" r="3" fill="#ea580c"/><circle cx="187.3" cy="216.4" r="3" fill="#ea580c"/><circle cx="204.8" cy="177.9" r="3" fill="#ea580c"/><circle cx="222.3" cy="144.9" r="3" fill="#ea580c"/><circle cx="239.7" cy="127.5" r="3" fill="#ea580c"/><circle cx="257.2" cy="126.9" r="3" fill="#ea580c"/><circle cx="274.7" cy="117.2" r="3" fill="#ea580c"/><circle cx="292.2" cy="117.2" r="3" fill="#ea580c"/><circle cx="309.6" cy="117.8" r="3" fill="#ea580c"/><circle cx="327.1" cy="110.6" r="3" fill="#ea580c"/><circle cx="344.6" cy="113.0" r="3" fill="#ea580c"/><circle cx="362.1" cy="110.0" r="3" fill="#ea580c"/><circle cx="379.5" cy="102.2" r="3" fill="#ea580c"/><circle cx="397.0" cy="103.4" r="3" fill="#ea580c"/><line x1="69" y1="106" x2="83" y2="106" stroke="#ea580c" stroke-width="3"/><text class="small" x="88" y="110">GRPO_constant</text><polyline fill="none" stroke="#16a34a" stroke-width="2" points="65.0,344.4 82.5,344.4 99.9,343.2 117.4,342.0 134.9,335.4 152.4,320.4 169.8,299.9 187.3,253.7 204.8,187.5 222.3,167.7 239.7,156.3 257.2,141.9 274.7,128.1 292.2,120.2 309.6,104.6 327.1,117.8 344.6,106.4 362.1,96.8 379.5,100.4 397.0,95.0"/><circle cx="65.0" cy="344.4" r="3" fill="#16a34a"/><circle cx="82.5" cy="344.4" r="3" fill="#16a34a"/><circle cx="99.9" cy="343.2" r="3" fill="#16a34a"/><circle cx="117.4" cy="342.0" r="3" fill="#16a34a"/><circle cx="134.9" cy="335.4" r="3" fill="#16a34a"/><circle cx="152.4" cy="320.4" r="3" fill="#16a34a"/><circle cx="169.8" cy="299.9" r="3" fill="#16a34a"/><circle cx="187.3" cy="253.7" r="3" fill="#16a34a"/><circle cx="204.8" cy="187.5" r="3" fill="#16a34a"/><circle cx="222.3" cy="167.7" r="3" fill="#16a34a"/><circle cx="239.7" cy="156.3" r="3" fill="#16a34a"/><circle cx="257.2" cy="141.9" r="3" fill="#16a34a"/><circle cx="274.7" cy="128.1" r="3" fill="#16a34a"/><circle cx="292.2" cy="120.2" r="3" fill="#16a34a"/><circle cx="309.6" cy="104.6" r="3" fill="#16a34a"/><circle cx="327.1" cy="117.8" r="3" fill="#16a34a"/><circle cx="344.6" cy="106.4" r="3" fill="#16a34a"/><circle cx="362.1" cy="96.8" r="3" fill="#16a34a"/><circle cx="379.5" cy="100.4" r="3" fill="#16a34a"/><circle cx="397.0" cy="95.0" r="3" fill="#16a34a"/><line x1="69" y1="122" x2="83" y2="122" stroke="#16a34a" stroke-width="3"/><text class="small" x="88" y="126">Dr_GRPO</text><text class="small" x="65" y="381">0</text><text class="small" x="379" y="381">190</text><text x="432" y="61" class="small">Validation format reward</text><line class="grid" x1="475" y1="365" x2="807" y2="365"/><text class="small" x="430" y="369">0.458</text><line class="grid" x1="475" y1="220.0" x2="807" y2="220.0"/><text class="small" x="430" y="224.0">0.729</text><line class="grid" x1="475" y1="75" x2="807" y2="75"/><text class="small" x="430" y="79">0.999</text><line class="axis" x1="475" y1="75" x2="475" y2="365"/><line class="axis" x1="475" y1="365" x2="807" y2="365"/><polyline fill="none" stroke="#2563eb" stroke-width="2" points="475.0,345.0 492.5,317.8 509.9,310.0 527.4,307.9 544.9,286.9 562.4,280.7 579.8,268.1 597.3,231.0 614.8,215.3 632.3,197.5 649.7,154.6 667.2,146.8 684.7,147.3 702.2,143.6 719.6,142.1 737.1,141.0 754.6,133.7 772.1,120.6 789.5,122.2 807.0,120.1"/><circle cx="475.0" cy="345.0" r="3" fill="#2563eb"/><circle cx="492.5" cy="317.8" r="3" fill="#2563eb"/><circle cx="509.9" cy="310.0" r="3" fill="#2563eb"/><circle cx="527.4" cy="307.9" r="3" fill="#2563eb"/><circle cx="544.9" cy="286.9" r="3" fill="#2563eb"/><circle cx="562.4" cy="280.7" r="3" fill="#2563eb"/><circle cx="579.8" cy="268.1" r="3" fill="#2563eb"/><circle cx="597.3" cy="231.0" r="3" fill="#2563eb"/><circle cx="614.8" cy="215.3" r="3" fill="#2563eb"/><circle cx="632.3" cy="197.5" r="3" fill="#2563eb"/><circle cx="649.7" cy="154.6" r="3" fill="#2563eb"/><circle cx="667.2" cy="146.8" r="3" fill="#2563eb"/><circle cx="684.7" cy="147.3" r="3" fill="#2563eb"/><circle cx="702.2" cy="143.6" r="3" fill="#2563eb"/><circle cx="719.6" cy="142.1" r="3" fill="#2563eb"/><circle cx="737.1" cy="141.0" r="3" fill="#2563eb"/><circle cx="754.6" cy="133.7" r="3" fill="#2563eb"/><circle cx="772.1" cy="120.6" r="3" fill="#2563eb"/><circle cx="789.5" cy="122.2" r="3" fill="#2563eb"/><circle cx="807.0" cy="120.1" r="3" fill="#2563eb"/><polyline fill="none" stroke="#ea580c" stroke-width="2" points="475.0,340.3 492.5,327.2 509.9,341.3 527.4,330.4 544.9,295.3 562.4,264.5 579.8,221.0 597.3,172.9 614.8,154.6 632.3,148.9 649.7,131.6 667.2,125.3 684.7,126.9 702.2,127.9 719.6,126.9 737.1,122.7 754.6,124.8 772.1,121.2 789.5,120.1 807.0,121.7"/><circle cx="475.0" cy="340.3" r="3" fill="#ea580c"/><circle cx="492.5" cy="327.2" r="3" fill="#ea580c"/><circle cx="509.9" cy="341.3" r="3" fill="#ea580c"/><circle cx="527.4" cy="330.4" r="3" fill="#ea580c"/><circle cx="544.9" cy="295.3" r="3" fill="#ea580c"/><circle cx="562.4" cy="264.5" r="3" fill="#ea580c"/><circle cx="579.8" cy="221.0" r="3" fill="#ea580c"/><circle cx="597.3" cy="172.9" r="3" fill="#ea580c"/><circle cx="614.8" cy="154.6" r="3" fill="#ea580c"/><circle cx="632.3" cy="148.9" r="3" fill="#ea580c"/><circle cx="649.7" cy="131.6" r="3" fill="#ea580c"/><circle cx="667.2" cy="125.3" r="3" fill="#ea580c"/><circle cx="684.7" cy="126.9" r="3" fill="#ea580c"/><circle cx="702.2" cy="127.9" r="3" fill="#ea580c"/><circle cx="719.6" cy="126.9" r="3" fill="#ea580c"/><circle cx="737.1" cy="122.7" r="3" fill="#ea580c"/><circle cx="754.6" cy="124.8" r="3" fill="#ea580c"/><circle cx="772.1" cy="121.2" r="3" fill="#ea580c"/><circle cx="789.5" cy="120.1" r="3" fill="#ea580c"/><circle cx="807.0" cy="121.7" r="3" fill="#ea580c"/><polyline fill="none" stroke="#16a34a" stroke-width="2" points="475.0,330.9 492.5,310.5 509.9,298.5 527.4,292.2 544.9,245.1 562.4,236.7 579.8,205.9 597.3,175.0 614.8,134.2 632.3,120.1 649.7,114.4 667.2,111.7 684.7,106.5 702.2,112.3 719.6,103.9 737.1,106.0 754.6,102.8 772.1,107.0 789.5,99.2 807.0,95.0"/><circle cx="475.0" cy="330.9" r="3" fill="#16a34a"/><circle cx="492.5" cy="310.5" r="3" fill="#16a34a"/><circle cx="509.9" cy="298.5" r="3" fill="#16a34a"/><circle cx="527.4" cy="292.2" r="3" fill="#16a34a"/><circle cx="544.9" cy="245.1" r="3" fill="#16a34a"/><circle cx="562.4" cy="236.7" r="3" fill="#16a34a"/><circle cx="579.8" cy="205.9" r="3" fill="#16a34a"/><circle cx="597.3" cy="175.0" r="3" fill="#16a34a"/><circle cx="614.8" cy="134.2" r="3" fill="#16a34a"/><circle cx="632.3" cy="120.1" r="3" fill="#16a34a"/><circle cx="649.7" cy="114.4" r="3" fill="#16a34a"/><circle cx="667.2" cy="111.7" r="3" fill="#16a34a"/><circle cx="684.7" cy="106.5" r="3" fill="#16a34a"/><circle cx="702.2" cy="112.3" r="3" fill="#16a34a"/><circle cx="719.6" cy="103.9" r="3" fill="#16a34a"/><circle cx="737.1" cy="106.0" r="3" fill="#16a34a"/><circle cx="754.6" cy="102.8" r="3" fill="#16a34a"/><circle cx="772.1" cy="107.0" r="3" fill="#16a34a"/><circle cx="789.5" cy="99.2" r="3" fill="#16a34a"/><circle cx="807.0" cy="95.0" r="3" fill="#16a34a"/><text class="small" x="475" y="381">0</text><text class="small" x="789" y="381">190</text><text x="842" y="61" class="small">Validation response length</text><line class="grid" x1="885" y1="365" x2="1217" y2="365"/><text class="small" x="840" y="369">24.9</text><line class="grid" x1="885" y1="220.0" x2="1217" y2="220.0"/><text class="small" x="840" y="224.0">75.1</text><line class="grid" x1="885" y1="75" x2="1217" y2="75"/><text class="small" x="840" y="79">125</text><line class="axis" x1="885" y1="75" x2="885" y2="365"/><line class="axis" x1="885" y1="365" x2="1217" y2="365"/><polyline fill="none" stroke="#2563eb" stroke-width="2" points="885.0,112.9 902.5,143.7 919.9,159.9 937.4,200.7 954.9,215.5 972.4,260.2 989.8,279.1 1007.3,305.9 1024.8,314.5 1042.3,333.2 1059.7,335.8 1077.2,345.0 1094.7,341.6 1112.2,320.2 1129.6,259.8 1147.1,175.4 1164.6,130.9 1182.1,122.3 1199.5,114.0 1217.0,109.9"/><circle cx="885.0" cy="112.9" r="3" fill="#2563eb"/><circle cx="902.5" cy="143.7" r="3" fill="#2563eb"/><circle cx="919.9" cy="159.9" r="3" fill="#2563eb"/><circle cx="937.4" cy="200.7" r="3" fill="#2563eb"/><circle cx="954.9" cy="215.5" r="3" fill="#2563eb"/><circle cx="972.4" cy="260.2" r="3" fill="#2563eb"/><circle cx="989.8" cy="279.1" r="3" fill="#2563eb"/><circle cx="1007.3" cy="305.9" r="3" fill="#2563eb"/><circle cx="1024.8" cy="314.5" r="3" fill="#2563eb"/><circle cx="1042.3" cy="333.2" r="3" fill="#2563eb"/><circle cx="1059.7" cy="335.8" r="3" fill="#2563eb"/><circle cx="1077.2" cy="345.0" r="3" fill="#2563eb"/><circle cx="1094.7" cy="341.6" r="3" fill="#2563eb"/><circle cx="1112.2" cy="320.2" r="3" fill="#2563eb"/><circle cx="1129.6" cy="259.8" r="3" fill="#2563eb"/><circle cx="1147.1" cy="175.4" r="3" fill="#2563eb"/><circle cx="1164.6" cy="130.9" r="3" fill="#2563eb"/><circle cx="1182.1" cy="122.3" r="3" fill="#2563eb"/><circle cx="1199.5" cy="114.0" r="3" fill="#2563eb"/><circle cx="1217.0" cy="109.9" r="3" fill="#2563eb"/><polyline fill="none" stroke="#ea580c" stroke-width="2" points="885.0,121.1 902.5,134.3 919.9,148.1 937.4,164.4 954.9,182.0 972.4,210.9 989.8,172.9 1007.3,125.1 1024.8,113.4 1042.3,105.9 1059.7,117.1 1077.2,111.4 1094.7,107.9 1112.2,105.5 1129.6,103.9 1147.1,99.5 1164.6,108.1 1182.1,104.1 1199.5,96.6 1217.0,95.0"/><circle cx="885.0" cy="121.1" r="3" fill="#ea580c"/><circle cx="902.5" cy="134.3" r="3" fill="#ea580c"/><circle cx="919.9" cy="148.1" r="3" fill="#ea580c"/><circle cx="937.4" cy="164.4" r="3" fill="#ea580c"/><circle cx="954.9" cy="182.0" r="3" fill="#ea580c"/><circle cx="972.4" cy="210.9" r="3" fill="#ea580c"/><circle cx="989.8" cy="172.9" r="3" fill="#ea580c"/><circle cx="1007.3" cy="125.1" r="3" fill="#ea580c"/><circle cx="1024.8" cy="113.4" r="3" fill="#ea580c"/><circle cx="1042.3" cy="105.9" r="3" fill="#ea580c"/><circle cx="1059.7" cy="117.1" r="3" fill="#ea580c"/><circle cx="1077.2" cy="111.4" r="3" fill="#ea580c"/><circle cx="1094.7" cy="107.9" r="3" fill="#ea580c"/><circle cx="1112.2" cy="105.5" r="3" fill="#ea580c"/><circle cx="1129.6" cy="103.9" r="3" fill="#ea580c"/><circle cx="1147.1" cy="99.5" r="3" fill="#ea580c"/><circle cx="1164.6" cy="108.1" r="3" fill="#ea580c"/><circle cx="1182.1" cy="104.1" r="3" fill="#ea580c"/><circle cx="1199.5" cy="96.6" r="3" fill="#ea580c"/><circle cx="1217.0" cy="95.0" r="3" fill="#ea580c"/><polyline fill="none" stroke="#16a34a" stroke-width="2" points="885.0,121.0 902.5,161.6 919.9,179.8 937.4,193.5 954.9,252.4 972.4,262.3 989.8,239.0 1007.3,165.0 1024.8,127.8 1042.3,122.2 1059.7,128.1 1077.2,124.8 1094.7,130.9 1112.2,120.3 1129.6,110.9 1147.1,100.6 1164.6,98.6 1182.1,101.7 1199.5,95.9 1217.0,102.3"/><circle cx="885.0" cy="121.0" r="3" fill="#16a34a"/><circle cx="902.5" cy="161.6" r="3" fill="#16a34a"/><circle cx="919.9" cy="179.8" r="3" fill="#16a34a"/><circle cx="937.4" cy="193.5" r="3" fill="#16a34a"/><circle cx="954.9" cy="252.4" r="3" fill="#16a34a"/><circle cx="972.4" cy="262.3" r="3" fill="#16a34a"/><circle cx="989.8" cy="239.0" r="3" fill="#16a34a"/><circle cx="1007.3" cy="165.0" r="3" fill="#16a34a"/><circle cx="1024.8" cy="127.8" r="3" fill="#16a34a"/><circle cx="1042.3" cy="122.2" r="3" fill="#16a34a"/><circle cx="1059.7" cy="128.1" r="3" fill="#16a34a"/><circle cx="1077.2" cy="124.8" r="3" fill="#16a34a"/><circle cx="1094.7" cy="130.9" r="3" fill="#16a34a"/><circle cx="1112.2" cy="120.3" r="3" fill="#16a34a"/><circle cx="1129.6" cy="110.9" r="3" fill="#16a34a"/><circle cx="1147.1" cy="100.6" r="3" fill="#16a34a"/><circle cx="1164.6" cy="98.6" r="3" fill="#16a34a"/><circle cx="1182.1" cy="101.7" r="3" fill="#16a34a"/><circle cx="1199.5" cy="95.9" r="3" fill="#16a34a"/><circle cx="1217.0" cy="102.3" r="3" fill="#16a34a"/><text class="small" x="885" y="381">0</text><text class="small" x="1199" y="381">190</text></svg>